<svg width="24" height="24" viewBox="0 0 24 24" fill="none" xmlns="http://www.w3.org/2000/svg">
<path d="M20.182 8.8879C20.182 4.58169 16.5189 1.09082 12.0002 1.09082C7.48148 1.09082 3.81836 4.58169 3.81836 8.8879V9.35754C3.81836 11.0805 4.38328 12.7604 5.43415 14.1625L11.984 22.9011C11.9919 22.9116 12.0084 22.9116 12.0163 22.9011L18.5662 14.1625C19.6171 12.7604 20.182 11.0805 20.182 9.35754V8.8879Z" stroke="#2D383F" stroke-linecap="round" stroke-linejoin="round"/>
<path d="M10.401 5.76976C11.4116 5.30597 12.5888 5.30597 13.5994 5.76976C14.61 6.23355 15.344 7.11065 15.5935 8.15278C15.8431 9.19491 15.5812 10.2886 14.8818 11.1244C14.1825 11.9601 13.1219 12.4468 12.0002 12.4468C10.8785 12.4468 9.81787 11.9601 9.11852 11.1244C8.41916 10.2886 8.15721 9.19491 8.40681 8.15278C8.6564 7.11065 9.39038 6.23355 10.401 5.76976Z" stroke="#2D383F" stroke-linecap="round" stroke-linejoin="round"/>
</svg>
