<svg width="24" height="24" viewBox="0 0 24 24" fill="none" xmlns="http://www.w3.org/2000/svg">
<g clip-path="url(#clip0_131_4877)">
<path d="M21.0802 21.8664C20.7309 22.5547 20.0113 22.9823 19.2464 22.8986C18.9176 22.8626 18.5892 22.8186 18.2613 22.7664C13.9885 22.087 10.0396 20.067 6.98058 16.996C3.92157 13.9249 1.9095 9.96046 1.23275 5.6708C1.18086 5.3419 1.13703 5.01239 1.10121 4.68255C1.0178 3.91457 1.44368 3.19215 2.12931 2.84144L5.12985 1.30656C6.29111 0.712541 7.69625 1.40546 8.10463 2.64801C8.35232 3.40165 8.64484 4.14324 8.98182 4.86875C9.15068 5.2323 9.3298 5.58986 9.51882 5.94107C9.96632 6.77253 9.66446 7.83899 8.80747 8.23007C7.56283 8.79804 7.26639 10.4392 8.23314 11.4098L12.5448 15.7385C13.5116 16.709 15.1464 16.4114 15.7121 15.1619C16.1231 14.2541 17.2372 13.9254 18.1219 14.3788C18.3364 14.4888 18.5531 14.595 18.772 14.6975C19.6015 15.0858 20.4521 15.4153 21.3176 15.6854C22.5778 16.0787 23.2931 17.5062 22.694 18.6867L21.0802 21.8664Z" stroke="#2D383F" stroke-linecap="round" stroke-linejoin="round"/>
</g>
<defs>
<clipPath id="clip0_131_4877">
<rect width="24" height="24" fill="white"/>
</clipPath>
</defs>
</svg>
