<svg width="18" height="9" viewBox="0 0 18 9" fill="none" xmlns="http://www.w3.org/2000/svg">
<path d="M17.5026 8.02743C17.457 7.95645 17.1747 7.38659 15.8163 6.21531C14.3942 4.98883 14.5852 5.18799 16.2981 3.06728C17.3413 1.77572 17.7584 0.986988 17.6279 0.649804C17.5037 0.328395 16.7364 0.413184 16.7364 0.413184L14.1851 0.426986C14.1851 0.426986 13.9962 0.403324 13.855 0.481212C13.7181 0.558114 13.63 0.735579 13.63 0.735579C13.63 0.735579 13.2257 1.7353 12.6866 2.58516C11.5499 4.37855 11.0946 4.4732 10.9089 4.36179C10.477 4.10249 10.5852 3.31869 10.5852 2.76263C10.5852 1.02445 10.8686 0.299803 10.0323 0.112478C9.75426 0.0503654 9.55049 0.00895679 8.8405 0.00205536C7.92992 -0.00681791 7.15838 0.00501311 6.72219 0.203183C6.4314 0.335296 6.20747 0.630086 6.34438 0.646846C6.51312 0.667551 6.89518 0.74248 7.09788 0.998819C7.36002 1.3291 7.35047 2.07248 7.35047 2.07248C7.35047 2.07248 7.50117 4.11827 6.99918 4.37263C6.65427 4.54714 6.182 4.19122 5.16848 2.56347C4.64952 1.73037 4.25685 0.808537 4.25685 0.808537C4.25685 0.808537 4.1815 0.636987 4.04672 0.545297C3.88328 0.433888 3.65404 0.398395 3.65404 0.398395L1.22797 0.412198C1.22797 0.412198 0.863949 0.422057 0.730228 0.568959C0.611365 0.700086 0.720676 0.970227 0.720676 0.970227C0.720676 0.970227 2.62036 5.09827 4.77051 7.17954C6.74342 9.0873 8.98271 8.96208 8.98271 8.96208H9.99729C9.99729 8.96208 10.304 8.93054 10.46 8.77377C10.6043 8.62983 10.599 8.35969 10.599 8.35969C10.599 8.35969 10.5789 7.09475 11.2114 6.90842C11.8344 6.72504 12.6346 8.13095 13.4825 8.67222C14.1235 9.08138 14.6107 8.99166 14.6107 8.99166L16.8786 8.96208C16.8786 8.96208 18.0651 8.89406 17.5026 8.02743Z" fill="#2D383F"/>
</svg>
